<svg xmlns="http://www.w3.org/2000/svg" width="111" height="138" viewBox="0 0 111 138"><g fill="#FFF"><path d="M40.2 94.3c4.9 1.5 10.1 2.3 15.6 2.3h.2c5.4 0 10.5-.8 15.5-2.3 5.3-1.8 10.3-5.5 13.4-10.1 5-7.3 9.6-21.5 9.8-35.6-.2-14.1-4.7-28.3-9.8-35.6-3-4.6-8-8.3-13.3-10.1C66.7 1.4 61.3.6 55.9.6c-5.4 0-10.7.8-15.7 2.3-5.3 1.6-10.2 5.3-13.3 9.9-5 7.3-9.6 21.5-9.8 35.6.2 14.1 4.8 28.3 9.8 35.6 3.1 4.8 8 8.4 13.3 10.3zM20 48.5c-.2-10.6 3.1-23.5 6.2-30.4 3.5-7.9 8.7-12.6 16.5-14.8 4.2-1.1 8.6-1.6 13.1-1.6s8.9.5 13.1 1.6c7.8 2.1 13.1 6.9 16.5 14.8 3.1 6.9 6.4 19.8 6.2 30.4.2 10.6-3.1 23.5-6.2 30.4-3.5 7.9-8.7 12.6-16.5 14.7-4.2 1.1-8.6 1.6-13.1 1.6s-8.9-.5-13.1-1.6c-7.8-2.1-13-6.9-16.5-14.7C23 72 19.8 59.1 20 48.5z"/><path d="M44.9 82.5c3.4.9 7.1 1.4 10.9 1.4h.1c3.7 0 7.4-.5 10.8-1.4 3.6-1 6.6-3.6 8.1-7 3.3-7 5.4-17.1 5.4-27 0-9.9-2.2-20-5.4-27-1.5-3.4-4.5-5.9-8.1-7-3.4-.9-7.1-1.4-10.8-1.4h-.1c-3.7 0-7.4.5-10.9 1.4-3.6 1-6.6 3.6-8.1 7-3.3 7-5.4 17.1-5.4 27 0 9.9 2.1 20 5.4 27 1.5 3.4 4.5 5.9 8.1 7zm-1-18.4c-.7.5-1.4.5-2.1.5-.2 0-.6 0-.9-.1-.5-.1-1.3-.4-1.7-1.1l-.1-.2V63l-.1-.2v-7.1c-.1-.8-.4-.9-1.1-1.4l.2-.1 2.7-.9c.4.4.5 1 .5 1.5V60c0 .3.3.5.7.5.5 0 .7-.2.7-.5v-5.1c.1-.7.7-1.4 1.3-1.6.7-.4 1.7-.2 2.3.1 1.2.6 1.1 2.9 1.1 4.8-.5-.3-.5-.3-1-.5-.4-.1-.9 0-1.2.2-.4.4-.4.7-.4 1.3 0 2.5.2 4-.9 4.9zm8.6 14.6c-1 .7-2.6.9-3.7.3-.6-.3-1.2-.9-1.5-1.5-.3-.6-.4-.8-.4-1.3h7c.1.9-.5 1.8-1.4 2.5zm4.8.2h-2.4v-4.3h-3.8v-1.7h3.8l1.2-1.4 1.2 1.4h3.8v1.7h-3.8v4.3zM59 63.7c1.2.1 2.4 1.1 2.9 2.2s.3 2.6-.4 3.6c-.9 1.1-2.2 1.7-3.7 1.4-.9-.2-1.9-.8-2.4-1.7.8-.3 1.9-.7 2.1-1.4-.1-1.2.7-2.1 1.3-3 .3-.5.3-.7.2-1.1zm1.2-1.1V52.1h3.6v10.5h-3.6zm4.7 14.9c-.3.6-.9 1.2-1.5 1.5-1.1.6-2.7.4-3.7-.3-.9-.6-1.4-1.6-1.4-2.6h7c-.1.6-.2.8-.4 1.4zm.6-23.9c.6-.4 1-.8 1.7-1.4 0 1.4-.2 2.8.4 3.6l4.5 4.5c.5.6 1 1.4.6 2.2-.2.4-.4.8-.6 1.1 0-.7-.3-1.2-.7-1.6-2-1.9-5.4-4.6-5.7-5.8-.3-.8-.2-1.8-.2-2.6zm4.7 14.6c-.4.4-.5.6-1 1l-.9-1.1v-3c-1.3.6-1 2.4-1 4-.7-.6-1.1-1-1.8-1.6-.4-1.8.7-2.8 1.5-4.1l3.2 3v1.8zm2.7-.5c-.6.5-1 .8-1.7 1.4.1-1.4.2-2.8-.4-3.6-1.6-1.6-3.1-3-4.5-4.5-.5-.6-1-1.4-.6-2.2.2-.4.4-.8.6-1.1 0 .7.3 1.2.8 1.6 2 1.9 5.4 4.6 5.7 5.8.2.8.1 1.7.1 2.6zm-1.6-9.8l-3.2-3v-1.8c.4-.4.5-.6 1-1l.9 1.1v3c1.3-.6 1-2.4 1-4 .8.6 1.1 1 1.8 1.6.4 1.8-.7 2.8-1.5 4.1zm2.8-7.7H61.8v-3.6h12.3v3.6zm-5.5-8.6c.1 0 .6-.1.6-.4v-6.3c.9-.2 1.7-.5 2.5-.7V38c.5-.1.7-.1 1.3-.2v5l-1.5.2-.5 2h-5.5l-.8-1.8c-1.3-.1-1.4-.1-2.8-.2 1.3-1.6 2.6-3.3 3.4-5v-2.5l2.5-.3v6c0 .2.3.4.6.4h.2zm-3.2-23.1c.6-.2 1.5-.1 2 .4.7.5.9 1.4.7 2.2-.5 1.7-2.4 2.1-4 2.5l-.9-1.2c.3-1.5.5-3.2 2.2-3.9zm-4.9 7l.6 1.1-1.6 1.7c-.4-.4-.5-.4-.9-.9.9-.8 1-.9 1.9-1.9zM41 23.1c.3.8.8 1.4 1.6 1.8-.1-.4-.5-.8-.6-1.3-.4-.9-.3-2.2.3-3 .4-.6 1-.9 1.7-1.1-.3.7-.3 1.6 0 2.4.4-.3.5-.3.8-.7.1-.1.2-.2.3-.2.6 1.3 1.3 3.1.9 4.6l-.2.6c-.1-1.1-.3-1.6-1-2-.2.8.2 1.2.2 2 .3 1.3.1 2.5-.7 3.2h-2c-1.5-1.6-1.6-4.1-1.3-6.3zm4.6 8.3h-1.1l-.5 3.8c-.5-.4-1-.7-1.6-.9-.3-1.6-.3-1.7-.4-2.9h-1v-1.1h4.6v1.1zm-2.9 3.9c1.8 1 3 3 4.8 4.4.5.4.9.8 1.3 1 1.1-1 2-1.8 2.8-3.3.5-.9 1.4-1.2 2.4-1.2l.7-.8-.4-2c-.7-.9-1.3-1.9-1.8-2.9.2-1.2.4-2.5 1.6-3.2.8-.5 1.4.6 2-.1.5-.1.9 0 1.2.3.5.8 1 1.7 1.1 2.6-.3.9-.7 1.8-1.2 2.7-.1.2-.4.3-.6.4.1.4.2.8.5 1.2.3.1.7.1 1.1.1.3-1 1.5-1.5 2.4-1.8l2-1.3c-.3-1.5.7-2.9.1-4.4-1.1-.7-1.5-2-1.7-3 .2-.6.5-1.3 1-1.9l.1.1c1.1 1.3 2.1 2.6 2.5 4.2.2 2 .4 4.1.3 6.3-1.1 1.1-2.4 1.7-3.7 2.6l-.9 1.8c-.1 1.8-.6 3.5-.9 5.3.8 2.1 1.7 5 1 7-.5 1.2-1.6 1.8-2.5 2.5l-2.1 1.7c2.1 2.3 1.6 4.9 1.7 8.3 0 .8 1.4 1.5.7 2.4-.6 1-1.6 1.9-1.5 3.2-.6 1.1-2.2 1.3-2.9 1.3-.2 0-.3-.1-.3-.3.2-.6.6-1 .8-1.5.7-1.1.4-2.7 1.3-3.8-.8-2.5-1.9-4.8-2.2-7.4v-.2c-.6 1.2-.3 2.4 0 3.4-2.1 2.6-4.3 5.1-4.3 8.5-.9 1.6-2.1 3-2.8 4.6-.2.3-.6 0-.9-.1-.6-.4-.7-.8-.9-1.3-.5-2.3 2.2-3.1 2.9-5 .5-3.1.7-6.5 2.8-8.9.2-4.6 1.7-8.7 5-12.1-.2-1-.6-1.9-.9-2.9-.4 0-.7-.1-1.1-.4-.3-.4-.4-.7-.5-1.2-1.1 1.4-2.6 3-4.1 4-.3.2-.6-.2-1.2-.7-1.9-1.5-2.2-4.9-5.2-4.8-1.3-.4-1.3-2-1.5-3.2.6-.5 1.4-.4 2-.2zm1.3 4.6c-.1 2.1-.1 2-.1 4.2h-1.1v-.3c0-1.6-.1-2.7-.2-4.3.5-.2 1 .1 1.4.4zm-6.2 6.7h12.3v3.6H37.8v-3.6zM59 91.5c.7-.9 1.7-1.4 2.5-2.2.6-.7.7-1.8.4-2.6-.3-.8-1.1-1.2-1.9-1.3-.9-.1-1.8.1-2.5.8-.5.6-.6 1.3-.5 2l1.3-.1c0-.5.1-.9.5-1.3.3-.2.6-.3 1-.2.3.1.5.2.6.5.2.5.1 1.1-.2 1.4-1.2 1.3-3.1 2.3-3.1 4.2l5.3-.3c0-.4 0-.8-.1-1.2l-3.3.3zm-15.4-7.2c-.6.5-1.3.4-2.1.2l-.3.9c.5.2 1.2.4 1.8.6v.1l-1.5 4.6 1.4.5 2.2-6.7v-.1L44 84c-.1.1-.2.2-.4.3zm26.9 2.4l-.4-.1c.4-.3.8-.9.7-1.5-.1-.7-.6-1.1-1.2-1.4-.6-.2-1.2-.1-1.8 0-.6.1-1.2.4-1.6.8-.4.5-.7 1.1-.4 1.8.1.6.8 1 1.3 1l-.3.3c-.6.5-.6 1.2-.5 1.8.2.7.8 1.3 1.5 1.5.5.1 1.2.1 1.8 0 .6-.2 1.2-.5 1.7-.8.5-.5.8-1.3.6-2.1-.3-.6-.7-1.1-1.4-1.3zm-3.4-.5c-.2-.3-.2-.8.1-1.1.2-.2.4-.3.7-.4.3-.1.6-.1.8 0 .4.1.6.6.6.9 0 .3-.1.5-.3.6-.2.2-.4.3-.7.3-.3.1-.5.1-.7 0-.1 0-.3-.1-.5-.3zm3 3.2c-.2.2-.5.4-.8.5-.3.1-.7.1-1 0-.3-.1-.6-.4-.7-.7-.1-.5 0-.9.4-1.2.2-.1.4-.2.7-.3.3-.1.5-.1.7 0 .5.1.8.4.9.9.1.2 0 .5-.2.8zm-17.3-.5l-.4-.2c.5-.2 1.1-.6 1.1-1.3.1-.7-.2-1.3-.8-1.7-.5-.3-1.1-.5-1.7-.5-.6-.1-1.3 0-1.8.3-.6.4-1 .9-1 1.6 0 .6.5 1.2 1 1.4l-.4.2c-.7.3-1 .9-1 1.6-.1.8.3 1.5 1 1.9.5.3 1.1.5 1.8.5s1.3-.1 1.8-.3c.7-.3 1.2-1 1.2-1.8 0-.7-.2-1.3-.8-1.7zm-2.6-2.5c.2-.1.5-.2.8-.2.3 0 .6.1.8.2.3.2.4.7.3 1-.1.3-.3.4-.5.5-.2.1-.5.1-.7.1-.3 0-.5-.1-.7-.2-.2-.1-.4-.3-.4-.6-.1-.1 0-.6.4-.8zm1.9 4.1c0 .3-.2.6-.5.8-.2.1-.6.2-.9.2-.4 0-.7-.1-.9-.3-.3-.2-.4-.6-.4-.9 0-.5.3-.9.7-1 .2-.1.5-.1.7-.1.3 0 .5.1.7.2.5.2.7.7.6 1.1zm26.6-65.3l6.6-2.8-.6-1.4-6.6 2.9zM62 11.2l3.1-6.8-1.5-.2c-.7 1.7-1.4 3.7-2.1 5.1-.4-1.5-.7-3.6-1-5.4l-1.6-.2 1.7 7.3 1.4.2zM36.8 17l-1-.6-1.8 3.3-1.8-1 1.6-2.8-1-.6-1.6 2.8-1.4-.7 1.9-3.3-1.1-.6-2.5 4.6 6.2 3.5zM29 45.6c-.3-.8-1.2-1.1-2-1-.7.1-1.3.6-1.6 1.3-.1-.4-.5-1-1.2-1.1-.7-.1-1.4.1-1.7.7-.5.6-.3 3.2-.3 4.8h7.1v-.5c-.1-2.9.1-3.2-.3-4.2zm-4 3.2h-1.8c.1-1.6-.2-2.5.8-2.6.6 0 .7.1.9.4.1.4.1.8.1 2.2zm3 0h-2c0-1.6-.2-2.5.7-2.7.3-.1.7-.1 1 .2.5.4.3 1 .3 2.5zm52.1-18.9l.4 1.4 5.7-1.4.5 2 1.2-.3-1.5-5.5-1.1.3.5 2zm-33-18.8c.7.4 1.5.5 2.3.3l-.2-1.1h-.7c-.4-.1-.8-.3-.8-.8l-.8-5.1-1.4.2.8 5.1c0 .7.2 1.1.8 1.4z"/><path d="M49.8 10.2c-.2.1-.4.2-.6.2l.2 1.1c.8-.1 1.5-.5 2-1 .4-.5.5-1 .4-1.5L51 3.9l-1.5.2.8 5.1c.1.4-.1.8-.5 1zm31.6 26.2l1.6.3.4 2.5-1.5.8.2 1.4 6.7-3.5-.2-1.5-7.4-1.4.2 1.4zm5.9 1l-2.8 1.3-.2-1.8 3 .5zm-.7 7.2c-.4.2-.8.6-.9 1.1-.4 1-.2 2.5-1.1 3.1-.2.1-.7.2-.9-.1-.5-.4-.6-1.6-.3-2.3.2-.4.6-.7 1.1-.7l-.1-1.4c-.7 0-1.3.4-1.8.9-.7 1.1-.7 2.9 0 4.1.5.7 1.3 1.1 2.2 1 2.1-.4 1.5-3 2.3-4.2.2-.3.5-.2.7-.2.5.2.6.7.7 1.2 0 .5-.1 1.1-.6 1.4h-.5l.1 1.4c.8 0 1.6-.6 1.9-1.3.4-1.1.4-2.8-.6-3.7-.5-.5-1.5-.6-2.2-.3zM27.9 39l-5.1-.8-.2 1.4 5.1.8c.5.1 1 0 1.5-.4.6-.5.9-1.3 1-2l-1.1-.2c0 .2-.1.5-.2.6-.2.3-.6.6-1 .6zm.7-4.2l-5.1-.8-.2 1.4 5.1.8c.4.1.7.4.8.8.1.2.1.5 0 .7l1.1.2c.1-.8.1-1.6-.3-2.3-.5-.5-.9-.7-1.4-.8zm11-19.9l-.4-1.6 2.2-1.3 1.3 1.1 1.2-.8-5.8-4.8-1.3.8 1.6 7.4 1.2-.8zm-1.4-5.8l2.3 2.1-1.5.9-.8-3zM71.9 13l-3.5-1.5.8-1.8 3 1.2.5-1.1-3-1.3.6-1.4 3.4 1.5.5-1.1-4.9-2-2.7 6.5 4.8 2.1zM31.8 29.3l-2.7-.8H29c.2-.7.4-1.5.6-1.7.5-1.1 2.3 0 3-.1l.4-1.4c-1.2.1-2.8-1-3.7.3 0-.5 0-.9-.4-1.3s-1-.6-1.6-.5c-1.6.2-1.8 2.1-2.7 4.9l6.8 2 .4-1.4zm-3.9-1.2l-1.8-.5c.4-1.2.6-2.4 1.4-2.4.3.1.6.2.8.4.3.4-.1 1.4-.4 2.5zm46.4-11.2l2.2-1.7.1-.1c.4.5.9 1.2 1 1.4.6 1.1-1.3 1.9-1.7 2.5l.9 1.2c.7-1 2.5-1.7 1.9-3.2.4.3.7.5 1.3.4.6-.1 1.1-.5 1.4-1 .7-1.4-.6-2.7-2.4-5.1l-5.7 4.3 1 1.3zm4.8-3.6c.8 1 1.6 1.9 1.1 2.5-.3.2-.5.4-.8.4-.5 0-1-.9-1.8-1.8l1.5-1.1zm-63.8 98.2c-1-.1-2-.1-2.8-.1v3c2.2 0 2.3 0 3-.1.8-.1 1.1-.8 1.1-1.4 0-.7-.5-1.4-1.3-1.4zm-.1-1.7c.8 0 1.2-.5 1.2-1.4 0-.8-.6-1.2-1.3-1.2h-2.6v2.6h2.7zm34-2.5h-2.8v2.7c2 0 2.3 0 3-.1.6-.1 1-.6 1-1.4 0-.7-.6-1.1-1.2-1.2zm31.4.4l-1.3 4.4h2.6l-1.3-4.4z"/><path d="M0 102.8v16.3h111v-16.3H0zm15.3 13.4h-5v-10.6h5.1c1.6 0 2.9.9 3 2.5.1 1.1-.2 2.1-1.6 2.4 1.2.3 2 1.4 2 2.8 0 1.2-.9 2.9-3.5 2.9zm19.8-2.9c0 .8-.2 1.5-1 2.1-.9.7-2.1 1.1-3.2 1-1.2 0-2.4-.3-3.2-1-.8-.6-1-1.3-1-2.1v-7.7h2.2v7.7c0 .6.5 1.1 1.1 1.3.3.1.7.2 1 .2.3 0 .7 0 1-.2.6-.2 1-.7 1-1.3v-7.7h2.2v7.7zm15.5 2.9c-.5 0 .2-4.2-1.6-4.3-1-.1-1.7 0-2.7 0v4.3h-2.2v-10.6h5c1.6.1 3.3.7 3.4 2.5.1 2.1-1 2.5-2.1 2.9 2.5.5 1.6 3.5 2.3 5.2h-2.1zm17.4-6.6v1.8h-4.9v3h5.6v1.8h-7.8v-10.6h7.8v1.8h-5.6v2.3l4.9-.1zm15.3 6.6l-.8-2.3h-3.8l-.8 2.3h-2.2l3.7-10.6h2.3l3.7 10.6h-2.1zm17.4-2.9c0 .8-.2 1.5-1 2.1-.9.8-2.1 1.1-3.2 1-1.2 0-2.4-.3-3.2-1-.7-.6-1-1.3-1-2.1v-7.7h2.2v7.7c0 .6.5 1.1 1 1.3.3.1.7.2 1 .2.3 0 .7 0 1-.2.5-.2 1-.7 1-1.3v-7.7h2.2v7.7zm-18 13.2l-1.4 4.5H84z"/><path d="M0 138h111v-16.3H0V138zm92.9-10.4c0-1.9 1.3-3.5 4.1-3.5 3.9 0 4.2 2.6 4.2 3.3l-2 .1c0-.9-.5-1.7-2-1.7-1.6 0-2.2.7-2.2 1.4 0 1.9 6.4.9 6.4 4.5 0 2.4-1.8 3.6-4.5 3.6-3.2 0-4.5-2-4.5-3.6l2-.1c0 .8.8 1.9 2.3 1.9 1.1 0 2.4-.2 2.4-1.5.2-2.2-6.2-.8-6.2-4.4zm-11.4-3.2h2.3l3.7 10.6h-2.2l-.8-2.3h-3.8L80 135h-2.2l3.7-10.6zm-16.5.1h8.6v1.7h-3.2v8.8h-2.2v-8.8H65v-1.7zm-8.4-.1h2.2V135h-2.2v-10.6zm-16.3 0h5c1.6.1 3.3.7 3.4 2.5.1 2.1-1 2.5-2.1 2.9 2.5.5 1.6 3.5 2.3 5.2h-2.1c-.5 0 .2-4.2-1.6-4.3-1-.1-1.7 0-2.7 0v4.3h-2.2v-10.6zm-15.2 0h7.8v1.8h-5.6v2.3h4.9v1.8h-4.9v3h5.6v1.8h-7.8v-10.7zm-13.3 0c.7 2.6 1.5 5.6 2.3 7.9.8-2.2 1.6-5.2 2.3-7.9h2.3L15.1 135h-2l-3.6-10.6h2.3z"/><path d="M45.5 128.8c.6-.1 1-.6 1-1.4 0-.8-.6-1.2-1.2-1.3-.6-.1-1.8 0-2.8 0v2.7c2.1.1 2.4.1 3 0z"/></g></svg>
